<svg width="1440" height="1024" viewBox="0 0 1440 1024" fill="none" xmlns="http://www.w3.org/2000/svg">
  <defs>
    <style>
      @import url('https://fonts.googleapis.com/css2?family=Inter:wght@400;500;600&amp;display=swap');
      .font-inter { font-family: 'Inter', sans-serif; }
    </style>
    <!-- Authentic Gear Vector Path -->
    <g id="gear-icon" stroke-width="1.5" stroke-linecap="round" stroke-linejoin="round" fill="none">
      <circle cx="12" cy="12" r="3"></circle>
      <path d="M19.4 15a1.65 1.65 0 0 0 .33 1.82l.06.06a2 2 0 0 1 0 2.83 2 2 0 0 1-2.83 0l-.06-.06a1.65 1.65 0 0 0-1.82-.33 1.65 1.65 0 0 0-1 1.51V21a2 2 0 0 1-2 2 2 2 0 0 1-2-2v-.09A1.65 1.65 0 0 0 9 19.4a1.65 1.65 0 0 0-1.82.33l-.06.06a2 2 0 0 1-2.83 0 2 2 0 0 1 0-2.83l.06-.06a1.65 1.65 0 0 0 .33-1.82 1.65 1.65 0 0 0-1.51-1H3a2 2 0 0 1-2-2 2 2 0 0 1 2-2h.09A1.65 1.65 0 0 0 4.6 9a1.65 1.65 0 0 0-.33-1.82l-.06-.06a2 2 0 0 1 0-2.83 2 2 0 0 1 2.83 0l.06.06a1.65 1.65 0 0 0 1.82.33H9a1.65 1.65 0 0 0 1-1.51V3a2 2 0 0 1 2-2 2 2 0 0 1 2 2v.09a1.65 1.65 0 0 0 1 1.51 1.65 1.65 0 0 0 1.82-.33l.06-.06a2 2 0 0 1 2.83 0 2 2 0 0 1 0 2.83l-.06.06a1.65 1.65 0 0 0-.33 1.82V9a1.65 1.65 0 0 0 1.51 1H21a2 2 0 0 1 2 2 2 2 0 0 1-2 2h-.09a1.65 1.65 0 0 0-1.51 1z"></path>
    </g>
  </defs>

  <!-- Main Background -->
  <rect width="1440" height="1024" fill="#212121" />

  <!-- ========================================== -->
  <!-- FAR-LEFT ICON SIDEBAR                      -->
  <!-- ========================================== -->
  <rect width="64" height="1024" fill="#171717" />
  
  <g transform="translate(20, 20)">
    <rect x="2" y="2" width="8" height="8" rx="2" fill="none" stroke="#B4B4B4" stroke-width="1.5" />
    <rect x="14" y="2" width="8" height="8" rx="2" fill="none" stroke="#B4B4B4" stroke-width="1.5" />
    <rect x="2" y="14" width="8" height="8" rx="2" fill="none" stroke="#B4B4B4" stroke-width="1.5" />
    <rect x="14" y="14" width="8" height="8" rx="2" fill="none" stroke="#B4B4B4" stroke-width="1.5" />
  </g>

  <!-- Vertical Icons Stack -->
  <g transform="translate(22, 70)" stroke="#B4B4B4" stroke-width="1.5" fill="none" stroke-linecap="round" stroke-linejoin="round">
    <path d="M 2 4 h 16 v 12 h -16 z M 6 10 h 8 M 6 16 L 2 20 v -4" />
    <path d="M 2 40 h 12 l 4 4 v 12 h -16 z" />
    <path d="M 2 76 h 4 c 0 -3 6 -3 6 0 h 4 v 4 c 3 0 3 6 0 6 v 4 h -4 c 0 3 -6 3 -6 0 h -4 z" />
    <path d="M 4 112 h 12 v 12 h -12 z M 6 116 h 2 M 12 116 h 2 M 2 118 h -2 M 18 118 h 2 M 10 112 v -3 M 8 107 h 4" />
    <path d="M 4 148 h 12 v 16 l -6 -4 l -6 4 z" />
  </g>

  <g transform="translate(20, 970)">
    <path d="M 12 0 L 24 20 L 0 20 Z" fill="#3B82F6" opacity="0.8" />
  </g>

  <!-- ========================================== -->
  <!-- MAIN SIDEBAR (Projects / Chats)            -->
  <!-- ========================================== -->
  <rect x="64" y="0" width="220" height="1024" fill="#171717" />
  
  <g transform="translate(80, 20)">
    <text x="0" y="12" fill="#878787" font-size="12" font-weight="600" class="font-inter">Projects</text>
    <path d="M 50 8 L 54 12 L 50 16" stroke="#878787" stroke-width="1.5" fill="none" />
    <path d="M 170 8 h 10 v 10 h -10 z" stroke="#B4B4B4" stroke-width="1.5" fill="none" />
    <path d="M 173 11 h 10 v 10 h -10 z" fill="#171717" stroke="#B4B4B4" stroke-width="1.5" />
    
    <text x="0" y="44" fill="#878787" font-size="12" font-weight="600" class="font-inter">Chats</text>
    <path d="M 40 40 L 44 44 L 40 48" stroke="#878787" stroke-width="1.5" fill="none" />
    <path d="M 175 36 l 5 5 l -10 10 h -5 v -5 z M 172 49 l 6 6" stroke="#B4B4B4" stroke-width="1.5" fill="none" />
  </g>

  <!-- ========================================== -->
  <!-- TOP MODEL SELECTOR BUTTONS                 -->
  <!-- ========================================== -->
  <g transform="translate(300, 24)">
    <path d="M 10 16 C 6.7 16 4 13.3 4 10 C 4 6.7 6.7 4 10 4 C 11.5 4 12.8 4.5 13.8 5.4 L 12.3 6.9 C 11.7 6.4 10.9 6.1 10 6.1 C 7.8 6.1 6.1 7.8 6.1 10 C 6.1 12.2 7.8 13.9 10 13.9 C 12.2 13.9 13.1 12.4 13.4 11.4 L 10 11.4 L 10 9.4 L 15.6 9.4 C 15.6 9.7 15.7 10 15.7 10.4 C 15.7 13.6 13.5 16 10 16 Z" fill="#FFFFFF" />
    <text x="24" y="15" fill="#FFFFFF" font-size="15" font-weight="600" class="font-inter">gemini-2.5-flash-lite</text>
    
    <g transform="translate(180, 0)">
      <rect x="2" y="2" width="12" height="12" rx="2" stroke="#9E9E9E" stroke-width="1.5" fill="none" />
      <rect x="6" y="6" width="12" height="12" rx="2" stroke="#9E9E9E" stroke-width="1.5" fill="#212121" />
    </g>

    <g transform="translate(220, 0)">
      <circle cx="8" cy="10" r="8" stroke="#9E9E9E" stroke-width="1.5" fill="none" />
      <path d="M 8 5 L 8 15 M 3 10 L 13 10" stroke="#9E9E9E" stroke-width="1.5" stroke-linecap="round" />
    </g>
  </g>

  <!-- ========================================== -->
  <!-- MAIN CHAT AREA                             -->
  <!-- ========================================== -->
  <g transform="translate(862, 480)">
    <!-- Greeting Text -->
    <text x="0" y="5" fill="#FFFFFF" font-size="32" font-weight="600" text-anchor="middle" class="font-inter">Good afternoon, Guest</text>
  </g>

  <g transform="translate(540, 560)">
    <rect width="660" height="100" rx="24" fill="#2F2F2F" />
    <text x="16" y="30" fill="#878787" font-size="14" font-weight="400" class="font-inter">Message Gemini</text>
    
    <g transform="translate(16, 60)">
      <path d="M 6 12 L 6 4 C 6 2.3 7.3 1 9 1 C 10.7 1 12 2.3 12 4 L 12 14 C 12 16.8 9.8 19 7 19 C 4.2 19 2 16.8 2 14 L 2 4" stroke="#B4B4B4" stroke-width="2" stroke-linecap="round" fill="none" />
      <g transform="translate(30, 0)" stroke="#B4B4B4" stroke-width="2" stroke-linecap="round">
        <line x1="2" y1="5" x2="16" y2="5" />
        <circle cx="5" cy="5" r="2" fill="#2F2F2F" />
        <line x1="2" y1="13" x2="16" y2="13" />
        <circle cx="13" cy="13" r="2" fill="#2F2F2F" />
      </g>
    </g>

    <g transform="translate(580, 56)">
      <path d="M 12 2 C 10.9 2 10 2.9 10 4 L 10 10 C 10 11.1 10.9 12 12 12 C 13.1 12 14 11.1 14 10 L 14 4 C 14 2.9 13.1 2 12 2 Z M 6 10 C 6 13.3 8.7 16 12 16 C 15.3 16 18 13.3 18 10 M 12 16 L 12 20 M 9 20 L 15 20" stroke="#B4B4B4" stroke-width="2" stroke-linecap="round" fill="none" />
      <g transform="translate(36, -4)">
        <circle cx="16" cy="16" r="16" fill="#424242" />
        <path d="M 16 22 L 16 10 M 10 16 L 16 10 L 22 16" stroke="#212121" stroke-width="2" stroke-linecap="round" stroke-linejoin="round" fill="none" />
      </g>
    </g>
  </g>

  <!-- ========================================== -->
  <!-- OVERLAY: Model Selector Dropdown Menu      -->
  <!-- ========================================== -->
  <g transform="translate(300, 56)">
    <rect width="220" height="340" rx="12" fill="#171717" stroke="#333333" stroke-width="1" />
    
    <g transform="translate(12, 12)">
      <rect width="196" height="32" rx="8" fill="transparent" stroke="#B4B4B4" stroke-width="1" />
      <text x="12" y="21" fill="#878787" font-size="12" class="font-inter">Search models...</text>
    </g>

    <g transform="translate(4, 52)">
      
      <!-- OpenAI Row -->
      <g transform="translate(0, 0)">
        <rect width="212" height="36" rx="8" fill="transparent" />
        <circle cx="16" cy="18" r="8" fill="#FFFFFF" />
        <text x="32" y="23" fill="#B4B4B4" font-size="13" font-weight="500" class="font-inter">OpenAI</text>
        <use href="#gear-icon" stroke="#878787" transform="translate(150, 6) scale(0.66)" />
        <path d="M 186 14 L 190 18 L 186 22" stroke="#878787" stroke-width="1.5" stroke-linecap="round" fill="none" />
      </g>

      <!-- Google Row (SELECTED) -->
      <g transform="translate(0, 36)">
        <rect width="212" height="36" rx="8" fill="#2F2F2F" />
        <rect x="0" y="8" width="3" height="20" rx="1.5" fill="#FFFFFF" />
        <circle cx="16" cy="18" r="8" fill="#FFFFFF" />
        <text x="32" y="23" fill="#FFFFFF" font-size="13" font-weight="600" class="font-inter">Google</text>
        <use href="#gear-icon" stroke="#FFFFFF" transform="translate(150, 6) scale(0.66)" />
        <path d="M 186 14 L 190 18 L 186 22" stroke="#FFFFFF" stroke-width="1.5" stroke-linecap="round" fill="none" />
      </g>

      <!-- Anthropic Row -->
      <g transform="translate(0, 72)">
        <circle cx="16" cy="18" r="8" fill="#E3E3E3" />
        <text x="32" y="23" fill="#B4B4B4" font-size="13" class="font-inter">Anthropic</text>
        <use href="#gear-icon" stroke="#878787" transform="translate(150, 6) scale(0.66)" />
        <path d="M 186 14 L 190 18 L 186 22" stroke="#878787" stroke-width="1.5" stroke-linecap="round" fill="none" />
      </g>
      
      <!-- 302AI -->
      <g transform="translate(0, 108)">
        <circle cx="16" cy="18" r="8" fill="#E3E3E3" />
        <text x="32" y="23" fill="#B4B4B4" font-size="13" class="font-inter">302AI</text>
        <use href="#gear-icon" stroke="#878787" transform="translate(150, 6) scale(0.66)" />
        <path d="M 186 14 L 190 18 L 186 22" stroke="#878787" stroke-width="1.5" stroke-linecap="round" fill="none" />
      </g>

      <!-- APIpie -->
      <g transform="translate(0, 144)">
        <circle cx="16" cy="18" r="8" fill="#10B981" />
        <text x="32" y="23" fill="#B4B4B4" font-size="13" class="font-inter">APIpie</text>
        <use href="#gear-icon" stroke="#878787" transform="translate(150, 6) scale(0.66)" />
        <path d="M 186 14 L 190 18 L 186 22" stroke="#878787" stroke-width="1.5" stroke-linecap="round" fill="none" />
      </g>

      <!-- Cohere -->
      <g transform="translate(0, 180)">
        <circle cx="16" cy="18" r="8" fill="#E3E3E3" />
        <text x="32" y="23" fill="#B4B4B4" font-size="13" class="font-inter">cohere</text>
        <use href="#gear-icon" stroke="#878787" transform="translate(150, 6) scale(0.66)" />
        <path d="M 186 14 L 190 18 L 186 22" stroke="#878787" stroke-width="1.5" stroke-linecap="round" fill="none" />
      </g>

      <!-- DeepSeek -->
      <g transform="translate(0, 216)">
        <circle cx="16" cy="18" r="8" fill="#3B82F6" />
        <text x="32" y="23" fill="#B4B4B4" font-size="13" class="font-inter">DeepSeek</text>
        <use href="#gear-icon" stroke="#878787" transform="translate(150, 6) scale(0.66)" />
        <path d="M 186 14 L 190 18 L 186 22" stroke="#878787" stroke-width="1.5" stroke-linecap="round" fill="none" />
      </g>

      <!-- Fireworks -->
      <g transform="translate(0, 252)">
        <circle cx="16" cy="18" r="8" fill="#E3E3E3" />
        <text x="32" y="23" fill="#B4B4B4" font-size="13" class="font-inter">Fireworks</text>
        <use href="#gear-icon" stroke="#878787" transform="translate(150, 6) scale(0.66)" />
        <path d="M 186 14 L 190 18 L 186 22" stroke="#878787" stroke-width="1.5" stroke-linecap="round" fill="none" />
      </g>

    </g>
  </g>

  <!-- Footer Legal Text -->
  <text x="850" y="980" fill="#878787" font-size="12" font-weight="400" text-anchor="middle" class="font-inter">
    Veraxi v0.1.0 - Sovereign Intelligence. Privacy policy | Terms of service
  </text>
</svg>
